<?xml version="1.0" standalone="no"?>
<!DOCTYPE svg PUBLIC "-//W3C//DTD SVG 20010904//EN"
 "http://www.w3.org/TR/2001/REC-SVG-20010904/DTD/svg10.dtd">
<svg version="1.0" xmlns="http://www.w3.org/2000/svg"
 width="3890.000000pt" height="3525.000000pt" viewBox="0 0 3890.000000 3525.000000"
 preserveAspectRatio="xMidYMid meet">

<g transform="translate(0.000000,3525.000000) scale(0.100000,-0.100000)"
fill="#000000" stroke="none">
<path d="M26830 35240 c-1548 -85 -2945 -435 -4310 -1079 -957 -452 -1945
-1096 -2897 -1888 -95 -78 -175 -143 -178 -143 -3 0 -173 131 -378 292 -805
632 -913 713 -1262 946 -1371 913 -2933 1513 -4555 1751 -640 94 -1158 127
-1825 118 -527 -8 -806 -27 -1295 -88 -2234 -279 -4370 -1204 -6084 -2634
-1190 -994 -2136 -2184 -2817 -3545 -740 -1479 -1121 -3060 -1210 -5020 -13
-290 -7 -1237 10 -1470 47 -643 103 -1103 197 -1619 538 -2953 2048 -5611
4524 -7966 127 -121 935 -857 1785 -1625 1926 -1742 3837 -3455 7060 -6330
2358 -2103 3983 -3552 4510 -4024 675 -603 823 -724 1005 -820 127 -66 206
-88 320 -88 221 0 424 114 838 470 212 182 1467 1299 5887 5237 3479 3100
4164 3710 5925 5274 894 795 1702 1514 1795 1600 344 314 900 878 1210 1226
1260 1416 2210 2974 2843 4667 540 1441 857 2989 953 4653 15 260 15 944 0
1200 -63 1061 -246 2026 -571 2995 -500 1495 -1292 2851 -2370 4055 -177 198
-665 687 -860 862 -1163 1042 -2457 1819 -3895 2336 -978 352 -1975 562 -3055
643 -240 18 -1066 27 -1300 14z m-14665 -1724 c1029 -89 1950 -303 2880 -671
1230 -486 2347 -1193 3390 -2145 320 -292 491 -430 632 -511 360 -206 632
-147 1098 236 55 45 197 169 315 275 1091 979 2195 1675 3415 2155 933 367
1817 570 2850 656 209 17 904 23 1146 10 1060 -58 2060 -278 3044 -671 1716
-685 3167 -1792 4268 -3259 800 -1065 1389 -2296 1717 -3586 165 -648 260
-1266 300 -1950 13 -219 13 -872 0 -1085 -44 -726 -157 -1433 -364 -2266 -595
-2392 -1756 -4445 -3496 -6184 -287 -285 -452 -437 -1100 -1010 -1693 -1496
-3864 -3442 -6685 -5991 -599 -541 -1625 -1468 -2280 -2059 -1810 -1636 -2955
-2665 -3428 -3084 l-429 -378 -31 30 c-44 41 -865 772 -3492 3108 -3787 3368
-5076 4521 -6985 6254 -294 267 -746 677 -1005 910 -1497 1354 -2208 2045
-2906 2825 -1554 1737 -2571 3556 -3064 5480 -555 2168 -393 4450 472 6640
157 398 415 942 618 1305 646 1152 1476 2137 2470 2931 751 600 1626 1099
2530 1444 896 342 1849 545 2835 604 233 15 1064 6 1285 -13z"/>
<path d="M11265 31169 c-674 -42 -1332 -176 -2030 -413 -1707 -579 -3042
-1566 -3918 -2896 -356 -541 -640 -1151 -838 -1800 -326 -1066 -458 -2409
-353 -3595 187 -2126 1070 -4064 2648 -5813 341 -379 580 -615 1202 -1187
1493 -1375 2905 -2650 6114 -5525 1572 -1408 3107 -2789 3924 -3530 720 -653
765 -690 972 -793 323 -162 619 -151 948 36 130 73 256 171 486 377 675 603
2465 2193 3715 3300 3495 3095 4994 4435 6835 6109 366 332 924 884 1150 1136
1413 1577 2260 3284 2575 5185 191 1159 173 2455 -51 3555 -360 1767 -1244
3178 -2649 4230 -855 640 -1953 1159 -3012 1424 -930 233 -1866 272 -2764 116
-1177 -206 -2307 -741 -3378 -1599 -577 -462 -1137 -968 -2346 -2116 -1023
-972 -1362 -1290 -1374 -1290 -17 0 -352 403 -881 1060 -813 1010 -1098 1339
-1559 1800 -271 271 -454 438 -688 627 -1326 1076 -2800 1621 -4358 1612 -132
-1 -298 -6 -370 -10z m778 -1744 c906 -80 1746 -370 2492 -859 309 -203 697
-522 1235 -1015 373 -343 731 -694 1590 -1561 852 -861 1186 -1188 1379 -1353
461 -394 733 -440 1113 -187 230 152 372 286 1633 1540 995 990 1199 1189
1550 1511 828 758 1264 1079 1880 1380 654 319 1302 494 2034 550 205 15 776
6 971 -15 1278 -142 2469 -691 3370 -1553 949 -908 1610 -2206 1799 -3533 70
-491 79 -1018 25 -1490 -56 -485 -213 -1218 -377 -1760 -322 -1058 -812 -2011
-1456 -2830 -271 -344 -482 -572 -975 -1049 -806 -781 -660 -646 -2371 -2177
-1611 -1441 -5946 -5316 -7380 -6598 -572 -511 -1058 -946 -1081 -968 l-41
-39 -354 318 c-637 573 -1462 1309 -2849 2543 -3556 3164 -4946 4420 -6605
5970 -1082 1011 -1512 1430 -1777 1730 -697 790 -1211 1616 -1563 2510 -436
1108 -597 2304 -474 3525 59 583 192 1235 349 1705 571 1713 2015 3029 3870
3528 394 106 809 169 1290 196 126 7 557 -4 723 -19z"/>
<path d="M11200 27085 c-782 -89 -1543 -457 -2067 -998 -554 -572 -862 -1318
-934 -2257 -15 -195 -6 -726 15 -940 144 -1435 704 -2637 1713 -3681 272 -282
2012 -1866 3903 -3555 283 -253 947 -844 1475 -1314 1497 -1332 2413 -2151
3202 -2861 84 -76 191 -166 238 -201 462 -347 884 -366 1341 -60 119 81 156
113 930 807 850 763 1753 1569 3764 3360 1580 1407 2540 2263 3485 3109 745
667 982 910 1297 1336 543 734 938 1631 1146 2605 83 385 115 683 115 1060 0
651 -123 1190 -391 1720 -324 638 -829 1128 -1518 1473 -536 269 -1080 397
-1604 378 -667 -23 -1307 -267 -1935 -736 -321 -240 -471 -383 -1271 -1210
-824 -852 -1417 -1472 -2879 -3010 -1414 -1487 -1589 -1670 -1596 -1668 -7 3
-1027 1014 -3909 3874 -965 959 -1802 1784 -1860 1834 -113 98 -330 266 -451
347 -446 300 -944 498 -1444 574 -184 27 -580 35 -765 14z m605 -1731 c230
-37 449 -128 675 -279 218 -146 247 -174 1211 -1155 1398 -1425 4216 -4276
4641 -4696 391 -387 575 -542 755 -636 146 -76 210 -93 343 -93 103 1 124 4
202 31 157 56 295 148 534 355 71 62 1430 1411 3019 2999 1590 1588 2910 2905
2935 2927 322 281 648 461 960 529 122 27 448 27 570 0 132 -29 253 -72 400
-142 312 -150 560 -365 710 -614 219 -364 282 -839 199 -1500 -113 -906 -517
-1810 -1137 -2546 -131 -156 -253 -281 -557 -571 -1382 -1322 -2596 -2425
-5255 -4773 -926 -818 -1737 -1536 -2025 -1795 -245 -219 -244 -218 -437 -336
l-148 -89 -343 308 c-188 169 -1397 1255 -2687 2412 -4516 4053 -4896 4395
-5051 4550 -759 764 -1228 1636 -1403 2610 -105 586 -97 1081 24 1442 38 112
124 283 191 377 152 217 409 416 696 540 348 151 658 197 978 145z"/>
</g>
</svg>
